# xmcd
#
# Track frame offsets:
#	150
#	2525
#	10755
#	26147
#	34832
#	37362
#	45072
#	50387
#	52687
#	60687
#	63787
#	68200
#	69902
#	72355
#	74220
#	79110
#	92820
#	105512
#	118110
#	130695
#	143350
#	147660
#	151742
#	156225
#	160532
#	164762
#	169290
#	173905
#
# Disc length: 2377 seconds
#
# Revision: 1
# Processed by: cddbd v1.4PL0 Copyright (c) Steve Scherf et al.
# Submitted via: MusicWizard 6.0.2
#
DISCID=7b09471c
DTITLE=Dean Martin - Everybody Loves Somebody   Vol. 6
DYEAR=1900
DGENRE=Vocal
TTITLE0=Who's  Got The Action ?
TTITLE1=Any Man Who Loves His Mother
TTITLE2=Style
TTITLE3=Mr. Booze
TTITLE4=Don't Be A Do-Badder
TTITLE5='s Wonderful
TTITLE6=S' Wonderful
TTITLE7=Sophia
TTITLE8=Empty Saddles/If I Knew Susie
TTITLE9=On The Sunny Side Of The Street/ The Last Round Up
TTITLE10=South Of The Border
TTITLE11=Red Sails In The Sunset
TTITLE12=Side By Side
TTITLE13=The Glory Of Love
TTITLE14=The Glory Of Love
TTITLE15=Unidentified - True Love (Italian)
TTITLE16=Unidentified - Everybody Loves Somebody (Italian)
TTITLE17=Unidentified - Everybody Loves Somebody (Spanish)
TTITLE18=Unidentified - Everybody Loves Somebody (French)
TTITLE19=Unidentified - Everybody Loves Somebody (Japanese)
TTITLE20=Radio Adversting - What A Way  To Go (1)
TTITLE21=Radio Adversting - What A Way  To Go (2)
TTITLE22=Radio Adversting - Who's Been Sleeping In My Bed (1)
TTITLE23=Radio Adversting - Who's Been Sleeping In My Bed (2)
TTITLE24=Radio Adversting - Who's Been Sleeping In My Bed (3)
TTITLE25=Radio Adversting - The Silencers (1)
TTITLE26=Radio Adversting - The Silencers (2)
TTITLE27=Radio Adversting - The Silencers (3)
EXTD=
EXTT0=
EXTT1=
EXTT2=
EXTT3=
EXTT4=
EXTT5=
EXTT6=
EXTT7=
EXTT8=
EXTT9=
EXTT10=
EXTT11=
EXTT12=
EXTT13=
EXTT14=
EXTT15=
EXTT16=
EXTT17=
EXTT18=
EXTT19=
EXTT20=
EXTT21=
EXTT22=
EXTT23=
EXTT24=
EXTT25=
EXTT26=
EXTT27=
PLAYORDER=
